<svg width="1082" height="95" version="1.1" xmlns="http://www.w3.org/2000/svg" desc="Created with imagetracer.js version 1.2.6" ><path fill="rgb(0,0,0)" stroke="rgb(0,0,0)" stroke-width="1" opacity="1" d="M 0 0 L 42.5 0 L 43 1.5 L 0.5 87 L 0 0 Z " /><path fill="rgb(0,0,0)" stroke="rgb(0,0,0)" stroke-width="1" opacity="1" d="M 44.5 0 L 274 0 L 274 89.5 L 274.5 90 L 288 90 L 288.5 33 L 351 94.5 L 0 95 L 0 90 L 14.5 90 L 24 70 L 61.5 70 L 62 71.5 L 71.5 90 L 85.5 90 L 86 87.5 L 44.5 0 Z M 195 4 L 187 6 L 173 14 L 161 28 L 157 39 L 157 57 L 159 64 L 164 73 L 180 86 L 194 91 L 212 91 L 217 90 L 233 82 L 244 70 L 248 62 L 250 52 L 249 38 L 241 22 L 233 13 L 223 7 L 212 4 L 195 4 Z M 105 5 L 105 90 L 145 90 L 145 77 L 119 77 L 119 6 L 119 5 L 105 5 Z " /><path fill="rgb(0,0,0)" stroke="rgb(0,0,0)" stroke-width="1" opacity="1" d="M 275.5 0 L 966.5 0 L 967 1.5 L 924 87.5 L 924 90 L 938.5 90 L 940 88.5 L 948 70 L 985.5 70 L 986 71.5 L 995.5 90 L 1009.5 90 L 1010 87.5 L 968 0.5 L 1082 0 L 1082 5 L 1065.5 5 L 1065 6.5 L 1047 37 L 1044 35.5 L 1025.5 5 L 1010.5 5 L 1010 6.5 L 1039 54.5 L 1039 90 L 1053 90 L 1053 53.5 L 1081.5 7 L 1082 95 L 884.5 95 L 884 93.5 L 920 14.5 L 923 5 L 908.5 5 L 907 6.5 L 888 51.5 L 883.5 59 L 865 9.5 L 860.5 1 L 839 55.5 L 836.5 59 L 815 5 L 799.5 5 L 799 7.5 L 836 95 L 352.5 95 L 352 94.5 L 352 5.5 L 351.5 5 L 338 5 L 337.5 62 L 275.5 0 Z M 415 4 L 407 6 L 392 15 L 383 25 L 379 33 L 377 41 L 377 56 L 379 63 L 385 74 L 398 85 L 406 89 L 414 91 L 432 91 L 439 89 L 451 82 L 460 71 L 464 57 L 464 46 L 464 45 L 427 45 L 427 58 L 448 58 L 448 62 L 445 68 L 437 75 L 424 79 L 413 77 L 404 72 L 395 63 L 391 51 L 392 40 L 397 30 L 407 21 L 417 17 L 431 17 L 434 18 L 442 22 L 450 30 L 452 30 L 460 21 L 454 14 L 443 7 L 433 4 L 415 4 Z M 523 5 L 523 18 L 543 18 L 543 19 L 543 90 L 557 90 L 557 90 L 557 18 L 578 18 L 578 6 L 578 5 L 523 5 Z M 597 5 L 597 90 L 611 90 L 611 51 L 648 51 L 648 90 L 662 90 L 662 90 L 662 5 L 648 5 L 648 38 L 611 38 L 611 5 L 597 5 Z M 691 5 L 691 90 L 740 90 L 740 77 L 705 77 L 705 50 L 739 50 L 739 37 L 705 37 L 705 18 L 740 18 L 740 6 L 740 5 L 691 5 Z " /><path fill="rgb(0,0,0)" stroke="rgb(0,0,0)" stroke-width="1" opacity="1" d="M 196.5 17 L 210.5 17 L 218.5 20 L 228 27.5 L 234 37.5 L 235 53.5 L 231 63.5 L 224.5 71 L 216.5 76 L 202.5 79 L 189.5 76 L 176 64.5 L 171 52.5 L 171 42.5 L 174 33.5 L 184.5 22 L 196.5 17 Z " /><path fill="rgb(0,0,0)" stroke="rgb(0,0,0)" stroke-width="1" opacity="1" d="M 43.5 30 L 56 56.5 L 31 57 L 43.5 30 Z " /><path fill="rgb(0,0,0)" stroke="rgb(0,0,0)" stroke-width="1" opacity="1" d="M 967.5 30 L 980 56.5 L 955 57 L 967.5 30 Z " /><path fill="rgb(0,0,0)" stroke="rgb(0,0,0)" stroke-width="1" opacity="1" d="M 860.5 37 L 883 94.5 L 838 95 L 860.5 37 Z " /><path fill="rgb(127,127,254)" stroke="rgb(127,127,254)" stroke-width="1" opacity="1" d="M 43.5 0 L 81 76.5 L 86 90 L 71.5 90 L 70 88.5 L 62 70 L 24.5 70 L 24 71.5 L 14.5 90 L 0.5 90 L 0 87.5 L 43.5 0 Z M 44 30 L 31 57 L 56 57 L 44 30 Z " /><path fill="rgb(127,127,254)" stroke="rgb(127,127,254)" stroke-width="1" opacity="1" d="M 274.5 0 L 337.5 62 L 338 5 L 351.5 5 L 352 5.5 L 352 94.5 L 332.5 76 L 288.5 33 L 288 90 L 274.5 90 L 274 89.5 L 274.5 0 Z " /><path fill="rgb(127,127,254)" stroke="rgb(127,127,254)" stroke-width="1" opacity="1" d="M 967.5 0 L 1005 76.5 L 1010 90 L 995.5 90 L 994 88.5 L 986 70 L 948.5 70 L 948 71.5 L 938.5 90 L 924.5 90 L 924 87.5 L 967.5 0 Z M 968 30 L 955 57 L 980 57 L 968 30 Z " /><path fill="rgb(127,127,254)" stroke="rgb(127,127,254)" stroke-width="1" opacity="1" d="M 860.5 1 L 865 9.5 L 883.5 59 L 908.5 5 L 922.5 5 L 923 7.5 L 883.5 95 L 879 86.5 L 860.5 37 L 838 95 L 836 95 L 836 93.5 L 799 5 L 814.5 5 L 815 7.5 L 836.5 59 L 839 55.5 L 860.5 1 Z " /><path fill="rgb(127,127,254)" stroke="rgb(127,127,254)" stroke-width="1" opacity="1" d="M 194.5 4 L 211.5 4 L 222.5 7 L 232.5 13 L 241 21.5 L 249 37.5 L 250 51.5 L 248 61.5 L 244 69.5 L 232.5 82 L 216.5 90 L 211.5 91 L 193.5 91 L 179.5 86 L 164 72.5 L 159 63.5 L 157 56.5 L 157 38.5 L 161 27.5 L 172.5 14 L 186.5 6 L 194.5 4 Z M 197 17 L 185 22 L 174 34 L 171 43 L 171 53 L 176 65 L 190 76 L 203 79 L 217 76 L 225 71 L 231 64 L 235 54 L 234 38 L 228 28 L 219 20 L 211 17 L 197 17 Z " /><path fill="rgb(127,127,254)" stroke="rgb(127,127,254)" stroke-width="1" opacity="1" d="M 414.5 4 L 432.5 4 L 442.5 7 L 453.5 14 L 460 20.5 L 451.5 30 L 449.5 30 L 441.5 22 L 433.5 18 L 430.5 17 L 416.5 17 L 406.5 21 L 397 29.5 L 392 39.5 L 391 50.5 L 395 62.5 L 403.5 72 L 412.5 77 L 423.5 79 L 436.5 75 L 445 67.5 L 448 61.5 L 448 58 L 427 58 L 427 45 L 463.5 45 L 464 45.5 L 464 56.5 L 460 70.5 L 450.5 82 L 438.5 89 L 431.5 91 L 413.5 91 L 405.5 89 L 397.5 85 L 385 73.5 L 379 62.5 L 377 55.5 L 377 40.5 L 379 32.5 L 383 24.5 L 391.5 15 L 406.5 6 L 414.5 4 Z " /><path fill="rgb(127,127,254)" stroke="rgb(127,127,254)" stroke-width="1" opacity="1" d="M 105 5 L 118.5 5 L 119 5.5 L 119 77 L 145 77 L 145 90 L 105 90 L 105 5 Z " /><path fill="rgb(127,127,254)" stroke="rgb(127,127,254)" stroke-width="1" opacity="1" d="M 523 5 L 577.5 5 L 578 5.5 L 578 18 L 557 18 L 557 89.5 L 556.5 90 L 543 90 L 543 18.5 L 542.5 18 L 523 18 L 523 5 Z " /><path fill="rgb(127,127,254)" stroke="rgb(127,127,254)" stroke-width="1" opacity="1" d="M 597 5 L 611 5 L 611 38 L 648 38 L 648 5 L 662 5 L 662 89.5 L 661.5 90 L 648 90 L 648 51 L 611 51 L 611 90 L 597 90 L 597 5 Z " /><path fill="rgb(127,127,254)" stroke="rgb(127,127,254)" stroke-width="1" opacity="1" d="M 691 5 L 739.5 5 L 740 5.5 L 740 18 L 705 18 L 705 37 L 739 37 L 739 50 L 705 50 L 705 77 L 740 77 L 740 90 L 691 90 L 691 5 Z " /><path fill="rgb(127,127,254)" stroke="rgb(127,127,254)" stroke-width="1" opacity="1" d="M 1010 5 L 1025.5 5 L 1027 6.5 L 1045.5 37 L 1047 37 L 1047 35.5 L 1065 5 L 1081.5 5 L 1082 6.5 L 1053 53.5 L 1053 90 L 1039 90 L 1039 54.5 L 1012 10.5 L 1010 5 Z " /></svg>